<svg height="317pt" preserveAspectRatio="xMidYMid meet" viewBox="0 0 319 317" width="319pt" xmlns="http://www.w3.org/2000/svg"><g transform="matrix(.1 0 0 -.1 0 317)"><path d="m10 1585v-1585h1590 1590v1585 1585h-1590-1590zm1310 1056c0-5-6-14-14-20-40-34-16-91 39-91 29 0 39 7 64 44 35 50 77 71 123 61 43-9 82-9 141 0l47 8 60-63c49-51 63-61 82-55 45 14 64 69 33 95-19 16-19 30-1 30 19 0 37-25 45-60l6-30 37 25c38 25 88 34 88 14 0-41-43-71-114-79-55-6-72-26-31-36 38-9 97 11 150 52 25 19 50 32 55 29s-5-28-24-55c-65-94-58-135 49-287 19-27 60-30 93-7 48 33 12 104-52 104-45 0-88 36-88 73 0 40 29 69 66 65 41-4 47-28 7-28-41 0-58-30-33-58 12-15 32-22 67-24l50-3 3 103c4 146 22 129 22-20 0-68 3-139 6-159 8-45-25-87-76-98-39-8-39-4-15-111 39-176-25-387-160-523-36-37-87-79-113-94-76-43-76-43-29-67 23-11 51-35 62-53 24-39 45-42 45-7 0 19 7 28 28 36 19 7 36 26 48 52 19 41 24 43 111 66 56 14 80 54 63 106-14 41-5 58 16 30 20-28 18-93-5-125-20-27-20-28 0-57 10-16 19-44 19-62 0-30-2-33-22-27-45 14-83 41-86 63-4 28 1 28 32-3 28-28 46-32 46-12 0 17-28 43-57 51-29 9-90-17-98-43-13-43 29-83 79-74 24 5 28 3 23-11-5-12 0-16 22-16 35 0 61-9 61-21 0-5-79-9-176-9-171 0-175 0-169 20 5 14-2 29-24 50-25 25-37 30-80 30-42 0-56-5-83-29-42-37-30-53 12-17 17 14 42 26 54 26 28 0 76-36 76-56s-14-17-35 6c-10 11-29 20-42 20-29 0-30-16-2-23 12-3 18-10 14-16-8-14-132-15-140-1-3 5 1 23 10 39 20 39 19 41-9 41-18 0-34-13-57-45-18-25-36-45-41-45s-23 20-40 45c-25 35-38 45-60 45h-29l17-29c26-45 13-63-43-59-40 3-48 6-48 23 0 28-39 31-64 6-23-23-41-27-41-11 0 20 49 60 74 60 13 0 38-11 54-25 34-29 42-31 42-11 0 26-55 56-103 56-55 0-107-37-107-76v-24h-170c-93 0-170 4-170 9 0 11 25 21 56 21 17 0 24 6 24 20 0 17 3 18 26 10 41-16 74 11 74 59 0 52-106 75-142 31-10-12-15-26-12-31 6-11 44 8 61 30 15 21 27 9 18-19-6-19-78-60-106-60-16 0-9 52 12 90l22 38-22 28c-11 14-21 41-21 58 0 40 28 82 43 67 8-8 8-14-1-23-20-20-14-67 12-93 15-14 42-27 68-31 45-8 98-50 98-78 0-9 12-21 26-26 14-6 31-23 37-40s14-30 18-30c3 0 17 16 30 35 13 20 41 43 61 53 21 9 38 19 38 22s-24 19-52 35c-87 50-190 160-231 246-63 133-81 274-53 409 8 36 12 68 9 73-2 4-15 7-28 7-14 0-38 12-54 28l-29 27 6 160c8 181 25 214 30 55l3-100 47 7c58 7 74 19 70 52-2 21-9 27-36 29-40 4-38 26 2 30 63 8 91-76 40-117-15-12-41-21-60-21-39 0-74-29-74-62s29-58 66-58c30 0 38 7 84 78 48 73 51 80 47 134-2 45-10 67-35 102-18 25-28 47-23 51 6 3 31-10 56-29 53-41 112-61 149-52 49 12 30 33-34 38-45 3-66 10-85 28-58 54-8 83 62 35 40-27 53-25 53 7 0 12 7 30 17 40 17 19 43 24 43 9zm-774-1722c11-19-18-29-82-29-47 0-63-4-68-16-10-26-7-79 6-92 18-18 133-16 148 3 16 19 7 29-28 30-17 0-28 6-30 18-3 16 3 18 50 15 49-3 53-5 56-30 2-19-5-36-22-53-22-22-34-25-96-25-83 0-103 8-120 49-22 54 1 116 50 134 28 10 129 7 136-4zm124-47c0-86 15-102 96-102h64v68c0 70 10 99 29 88 7-5 11-42 11-97v-89h-90c-83 0-93 2-115 25-21 20-25 33-25 88 0 35 3 67 7 70 16 17 23 3 23-51zm280 43c0-12 15-15 79-15 46 0 83-5 86-11 11-16 5-18-80-21l-80-3-3-30c-4-52 9-60 104-65 57-3 89-9 92-17 3-10-20-13-91-13-91 0-96 1-116 26-16 21-21 41-21 89 0 34 3 65 7 68 11 12 23 8 23-8zm470-5c24-24 26-57 3-82-13-15-31-18-99-18-46 0-85-4-88-8-13-22 15-31 104-34 127-4 124-22-4-26-124-3-136 4-136 89 0 50 3 60 26 78 38 30 165 30 194 1zm253 8c37-20 46-41 47-110 0-54-3-68-15-68s-15 13-15 56c0 86-8 94-90 94h-69l-3-72c-2-57-6-73-18-73s-16 17-18 79c-2 44-1 85 2 93 7 17 148 18 179 1zm314-3c17-12 21-25 21-80 0-91-6-95-134-95h-104v95 95h98c70 0 104-4 119-15zm298-10c30-29 31-45 8-74-15-17-31-21-103-23-68-2-85-6-85-18s19-16 98-18c77-2 97-6 97-17 0-12-19-15-98-15-128 0-134 4-130 95 3 63 5 71 28 82 14 7 56 13 93 13 59 0 71-3 92-25zm541 14c12-20-19-29-98-29-84 0-98-9-98-64 0-43 24-56 101-56 62 0 69 2 69 19s-8 20-52 23c-39 2-53 7-53 18 0 12 14 15 65 15h65l3-52 3-53h-95c-90 0-95 1-115 26-36 45-23 130 23 152 29 15 173 15 182 1zm-1190-324c22-22 25-32 22-92-2-42-8-68-15-71-10-3-13 13-13 55 0 84-17 105-83 101l-52-3-5-75c-6-96-24-93-28 5l-3 75h-59-59l-3-77c-4-109-22-99-26 15l-3 92h151c148 0 151-1 176-25zm299 9c10-10 15-29 13-48-4-41-36-56-125-56-55 0-73-3-73-14 0-19 32-26 123-26 58 0 78-3 75-12-6-17-162-23-200-7-20 8-29 21-34 46-9 47 2 105 23 120 26 20 177 17 198-3zm293 4c-3-9-34-14-97-16-72-2-93-6-98-18-9-25 16-34 99-34 71 0 79-2 93-24 14-20 14-29 4-48-7-13-17-26-23-30-18-12-194-9-202 3-12 20 20 29 109 29 79 0 88 2 85 18-3 14-16 17-73 20-39 1-80 4-92 7-22 5-39 38-34 65 7 35 23 40 128 40 79 0 104-3 101-12z"/><path d="m1435 2521c-27-10-72-28-100-41-32-15-69-23-102-23-29 0-53-3-53-7 0-16 62-60 84-60 12 0 51 15 86 34 36 19 88 40 115 47 49 11 75 31 75 56 0 18-44 15-105-6z"/><path d="m1650 2532c0-23 38-50 95-66 33-10 84-31 112-47 29-16 61-29 71-29 23 0 59 25 73 52 11 19 9 20-24 14-36-7-58-1-174 48-69 29-153 45-153 28z"/><path d="m1435 2431c-27-10-67-28-87-41-32-18-38-27-38-56 0-19 4-34 9-34s31 13 58 30c26 16 80 37 118 46 39 10 71 18 73 20 2 1-8 14-21 28-28 31-45 32-112 7z"/><path d="m1643 2422-21-28 61-13c60-12 150-51 161-70 13-20-16-22-47-3-36 22-138 55-146 47-2-3 19-29 47-58 57-57 61-67 33-67-10 0-41 25-68 55-28 30-57 55-65 55-7 0-40-27-73-60s-63-60-67-60c-20 0-4 29 44 77 28 29 49 55 46 58-8 8-128-32-165-55-40-24-40-35-3-80 17-19 30-38 30-42 0-19-28-5-57 29l-31 38-27-25c-33-31-84-133-91-185l-6-40 74 73c40 39 77 72 81 72 21 0-1-33-70-102l-77-78 179-182c99-100 188-189 199-196 17-14 33 0 207 174 104 104 189 193 189 199s-34 44-75 85c-72 71-90 100-63 100 7 0 45-33 85-72 40-40 73-68 73-62 0 31-36 125-66 171-35 55-41 73-25 73 29 0 95-122 111-208 7-34 14-62 16-62s15 12 29 26c23 23 25 32 20 66-15 87-107 228-148 228-6 0-40-29-74-65-58-61-83-78-83-56 0 6 23 36 50 67 59 67 70 97 46 123-23 25-130 72-175 77-30 4-39 0-58-24zm32-347c14-13 25-31 25-40 0-24-26-18-48 12-14 19-28 26-51 26-47 0-71-29-77-94-11-106 34-168 104-143 23 8 27 16 30 52 3 47-7 53-37 21-13-14-21-17-26-9-12 20 33 57 76 63 22 3 49 13 60 23 10 9 22 14 25 11 12-11-5-37-31-47-21-8-25-16-25-48 0-76-70-121-141-91-49 20-69 62-69 148 0 70 1 74 34 107 29 29 41 34 80 34 36 0 52-6 71-25z"/><path d="m1150 2394c0-24-10-54-25-79-73-119-130-275-108-296 11-10 53 8 57 23 2 7 12 41 22 76s39 96 66 137c26 40 48 84 48 97 0 14-13 37-30 53l-30 29z"/><path d="m2008 2401c-16-18-28-40-28-49s23-50 50-90c31-46 58-100 71-145 19-65 47-107 70-107 31 0-15 149-78 255-31 51-49 96-53 124l-5 45z"/><path d="m1205 2264c-35-38-83-137-90-188-6-38-4-46 20-70 33-33 35-32 35 2 0 52 30 131 76 197 24 36 42 70 39 76-12 18-56 9-80-17z"/><path d="m1131 1912c-30-32-25-76 17-167 42-89 70-115 123-115h42l-40 43c-48 52-80 117-96 195-7 34-15 62-17 64-3 2-16-7-29-20z"/><path d="m2022 1878c-14-75-49-149-97-206l-37-42h35c19 0 46 9 60 20 31 25 93 144 102 198 5 34 3 43-20 66-14 14-27 26-29 26-1 0-8-28-14-62z"/><path d="m1015 1900c-10-16 26-145 59-206 27-51 35-59 64-62 39-4 40 7 7 56-14 20-37 73-51 117-27 88-59 127-79 95z"/><path d="m2151 1897c-18-9-30-30-46-84-12-39-34-92-49-117-32-54-32-62-4-70 29-7 40 5 76 79 35 73 55 142 50 178-3 25-5 26-27 14z"/><path d="m1206 1863c32-140 168-276 299-298 40-7 38-5-125 159-91 91-168 166-173 166-4 0-5-12-1-27z"/><path d="m1820 1725c-141-141-161-165-139-165 86 0 257 146 298 254 23 61 25 76 13 76-4 0-81-74-172-165z"/><path d="m1912 1599c-28-5-78-18-110-30-31-11-86-28-122-37-54-14-66-21-68-40-7-50 5-55 53-22 94 65 151 84 262 88 72 3 106 8 114 18 7 8 10 16 8 19-11 10-88 13-137 4z"/><path d="m1152 1583c3-15 19-19 113-24 121-6 163-20 256-83l54-36 3 36c4 39-8 54-44 54-12 0-69 16-127 35-84 28-122 35-182 35-67 0-76-2-73-17z"/></g></svg>